<svg id="Слой_1" xmlns="http://www.w3.org/2000/svg" viewBox="0 0 99 99">
    <style>
        .st0{fill:#cfcccc}
    </style>
    <g id="_x31_6">
        <path class="st0" d="M49.5 0c13.7 0 26 5.5 35 14.5S99 35.8 99 49.5s-5.5 26-14.5 35S63.2 99 49.5 99s-26-5.5-35-14.5S0 63.2 0 49.5s5.5-26 14.5-35S35.8 0 49.5 0zm32.3 17.2C73.5 9 62.1 3.9 49.5 3.9S25.5 9 17.2 17.3C9 25.5 3.9 36.9 3.9 49.5s5.1 24 13.4 32.3S37 95.2 49.6 95.2s24-5.1 32.3-13.4 13.4-19.7 13.4-32.3c-.1-12.6-5.2-24-13.5-32.3z"/>
        <path class="st0" d="M53.3 39.4v-4.1c0-1.9 1.3-2.4 2.2-2.4h5.7v-8.7h-7.8c-8.7 0-10.6 6.4-10.6 10.6v4.6h-5v10.1h5.1v25.3H53V49.5h7.5l.3-4 .6-6.1h-8.1z"/>
    </g>
</svg>
