<svg id="Слой_1" xmlns="http://www.w3.org/2000/svg" viewBox="0 0 99 99">
    <style>
        .st0{fill:#cfcccc}
    </style>
    <g id="_x31_6">
        <path class="st0" d="M49.5 0c13.7 0 26.1 5.5 35 14.5 9 9 14.5 21.3 14.5 35s-5.5 26-14.5 35c-8.9 9-21.3 14.5-35 14.5s-26-5.5-35-14.5S0 63.2 0 49.5s5.5-26 14.5-35S35.9 0 49.5 0zm32.3 17.2C73.5 9 62.1 3.9 49.5 3.9S25.5 9 17.2 17.3C9 25.5 3.9 36.9 3.9 49.5s5.1 24 13.4 32.3S37 95.2 49.6 95.2s24-5.1 32.3-13.4 13.4-19.7 13.4-32.3c-.1-12.6-5.2-24-13.5-32.3z"/>
        <path class="st0" d="M36.9 49.5c0-7 5.7-12.7 12.7-12.7s12.7 5.7 12.7 12.7-5.7 12.7-12.7 12.7c-7.1 0-12.7-5.7-12.7-12.7zm25.7-24.8H36.4c-6.4 0-11.7 5.3-11.7 11.7v26.2c0 6.4 5.3 11.7 11.7 11.7h26.2c6.5 0 11.7-5.3 11.7-11.7V36.4c.1-6.4-5.2-11.7-11.7-11.7zm-26.2 2.9h26.2c4.9 0 8.8 3.9 8.8 8.8v26.2c0 4.9-3.9 8.8-8.8 8.8H36.4c-4.9 0-8.8-3.9-8.8-8.8V36.4c0-4.8 4-8.8 8.8-8.8zm28.8 3.7c-1.4 0-2.6 1.2-2.6 2.6 0 1.4 1.2 2.6 2.6 2.6 1.4 0 2.6-1.2 2.6-2.6 0-1.4-1.1-2.6-2.6-2.6zm.3 18.2c0-8.8-7.2-16-16-16s-16 7.2-16 16c0 8.9 7.2 16 16 16 8.9 0 16-7.1 16-16z"/>
    </g>
</svg>
