<svg id="Слой_1" xmlns="http://www.w3.org/2000/svg" viewBox="0 0 726.1 193.9">
    <style>
        .st0{fill:#f8f8f8}
    </style>
    <path class="st0" d="M0 18.5L36.4 6.4l36.2 12.1h.1L109 6.4l28.6 9.5 7.6 2.6h.1l36.3-12.1 36.2 12.1h.1l7.6-2.6 28.7-9.5 36.2 12.1h.1l36.3-12.1 28.6 9.5 7.6 2.6h.1l36.3-12.1 36.2 12.1h.1L472 6.4l36.2 12.1h.1l36.3-12.1 36.2 12.1h.1l7.6-2.6 28.7-9.5 36.2 12.1h.1l36.3-12.1L726 18.5h.1v-.3L689.8 6.1l-36.3 12.1-36.3-12.1-36.3 12.1-36.3-12.1-36.3 12.1-7.4-2.5L472 6.1l-36.3 12.1-36.3-12.1-28.9 9.6-7.4 2.5-36.3-12.1-36.3 12.1-36.3-12.1-36.3 12.1-36.3-12.1-36.3 12.1L109 6.1 72.7 18.2 36.4 6.1 0 18.2v.3z"/>
    <path class="st0" d="M0 24.5l36.4-12.1 36.2 12.1h.1L109 12.4l24.1 8.1 12.1 4h.1l36.3-12.1 36.2 12.1h.1l12.1-4 24.2-8.1 36.2 12.1h.1l36.3-12.1 24.1 8.1 12.1 4h.1l36.3-12.1 36.2 12.1h.1L472 12.4l36.2 12.1h.1l36.3-12.1 36.2 12.1h.1l12.2-4 24.1-8.1 36.2 12.1h.1l36.3-12.1L726 24.5h.1v-.3l-36.3-12.1-36.3 12.1-36.3-12.1-36.3 12.1-36.3-12.1-36.3 12.1-12-4-24.3-8.1-36.3 12.1-36.3-12.1-24.4 8.1-11.9 4-36.3-12.1-36.3 12.1-36.3-12.1-36.3 12.1-36.3-12.1-36.3 12.1L109 12.1 72.7 24.2 36.4 12.1 0 24.2v.3z"/>
    <path class="st0" d="M36.4.3l36.2 12.1h.1L109 .3l33.1 11.1 3.2 1L181.6.3l36.2 12.1h.1l3.1-1L254.2.3l36.2 12.1h.1L326.8.3 360 11.4h-.1l3.2 1L399.4.3l36.2 12.1h.1L472 .3l36.2 12.1h.1L544.6.3l36.2 12.1h.1l3.1-1L617.2.3l36.2 12.1h.1L689.8.3 726 12.4h.1v-.3L689.8 0l-36.3 12.1L617.2 0l-36.3 12.1L544.6 0l-36.3 12.1-2.9-1L472 0l-36.3 12.1L399.4 0l-33.5 11.1-2.8 1L326.8 0l-36.3 12.1L254.2 0l-36.3 12.1L181.6 0l-36.3 12.1L109 0 72.7 12.1 36.4 0 0 12.1v.3zM0 72.9l36.4-12.1 36.2 12.1h.1L109 60.8l36.2 12.1h.1l36.3-12.1 36.2 12.1h.1l36.3-12.1 36.2 12.1h.1l11.9-3.9 24.4-8.2L363 72.9h.1l36.3-12.1 36.2 12.1h.1L472 60.8l36.2 12.1h.1l36.3-12.1 36.2 12.1h.1l36.3-12.1 24.3 8.2 11.9 3.9h.1l36.3-12.1L726 72.9h.1v-.3l-36.3-12.1-36.3 12.1-36.3-12.1-36.3 12.1-36.3-12.1-36.3 12.1L472 60.5l-23.9 8-12.4 4.1-12.4-4.1-23.9-8-36.3 12.1-36.3-12.1-36.3 12.1-12.4-4.1-23.9-8-36.3 12.1-36.3-12.1-36.3 12.1L109 60.5l-23.9 8-12.4 4.1-36.3-12.1L0 72.6z"/>
    <path class="st0" d="M0 60.8l36.4-12.1 36.2 12.1h.1L109 48.7l36.2 12.1h.1l36.3-12.1 36.2 12.1h.1l36.3-12.1 36.2 12.1h.1l30-10 6.3-2.1L363 60.8h.1l36.3-12.1 36.2 12.1h.1L472 48.7l36.2 12.1h.1l36.3-12.1 36.2 12.1h.1l36.3-12.1 6.2 2.1 30 10h.1l36.3-12.1L726 60.8h.1v-.3l-36.3-12.1-36.3 12.1-36.3-12.1-36.3 12.1-36.3-12.1-36.3 12.1L472 48.4l-5.8 1.9-30.5 10.2-30.6-10.2-5.7-1.9-36.3 12.1-36.3-12.1-36.3 12.1-30.6-10.2-5.7-1.9-36.3 12.1-36.3-12.1-36.3 12.1L109 48.4l-5.8 1.9-30.5 10.2-36.3-12.1L0 60.5z"/>
    <path class="st0" d="M0 66.9l36.4-12.1 36.2 12.1h.1L109 54.8l36.2 12.1h.1l36.3-12.1L212.1 65l5.7 1.9h.1l36.3-12.1 36.2 12.1h.1l21-7 15.3-5.1L363 66.9h.1l36.3-12.1 36.2 12.1h.1L472 54.8l36.2 12.1h.1l36.3-12.1 36.2 12.1h.1l36.3-12.1 15.3 5.1 20.9 7h.1l36.3-12.1L726 66.9h.1v-.3l-36.3-12.1-36.3 12.1-36.3-12.1-36.3 12.1-36.3-12.1-36.3 12.1L472 54.5l-14.9 4.9-21.4 7.2-21.5-7.2-14.8-4.9-36.3 12.1-36.3-12.1-36.3 12.1-21.5-7.2-14.8-4.9-36.3 12.1-21.1-7.1-15.2-5-36.3 12.1L109 54.5l-14.9 4.9-21.4 7.2-36.3-12.1L0 66.6zM0 85l36.4-12.1L69.5 84l3.1 1h.1L109 72.9 145.2 85h.1l36.3-12.1L217.8 85h.1l36.3-12.1L287.3 84l3.2 1 36.3-12.1L363 85h.1l36.3-12.1L435.6 85h.1L472 72.9 508.2 85h.1l36.3-12.1L580.8 85h.1l36.3-12.1L653.4 85h.1l3.1-1 33.2-11.1L726 85h.1v-.3l-36.3-12.1-36.3 12.1-36.3-12.1-36.3 12.1-36.3-12.1-36.3 12.1L472 72.6l-36.3 12.1-36.3-12.1-36.3 12.1-36.3-12.1-36.3 12.1-7.5-2.5-28.8-9.6-36.3 12.1-17.2-5.7-19.1-6.4-36.3 12.1L109 72.6 72.6 84.7 36.4 72.6 0 84.7z"/>
    <path class="st0" d="M0 79l36.4-12.1L72.6 79h.1L109 66.9 145.2 79h.1l36.3-12.1 29 9.6 7.2 2.5h.1l36.3-12.1L290.4 79h.1l2.8-1 33.5-11.1L363 79h.1l36.3-12.1L435.6 79h.1L472 66.9 508.2 79h.1l36.3-12.1L580.8 79h.1l36.3-12.1L650.6 78l2.8 1h.1l36.3-12.1L726 79h.1v-.3l-36.3-12.1-36.3 12.1-36.3-12.1-36.3 12.1-36.3-12.1-36.3 12.1L472 66.6l-33 10.9-3.3 1.2-3.4-1.1v-.1l-32.9-10.9-36.3 12.1-36.3-12.1-36.3 12.1-3.4-1.2-32.9-10.9-36.3 12.1-36.3-12.1-36.3 12.1L109 66.6 76 77.5l-3.3 1.2-36.3-12.1L0 78.7z"/>
    <path class="st0" d="M0 91.1L36.4 79 65 88.5l7.6 2.6h.1L109 79l36.2 12.1h.1L181.6 79l36.2 12.1h.1L254.2 79l28.6 9.5 7.6 2.6h.1L326.8 79 363 91.1h.1L399.4 79l36.2 12.1h.1L472 79l36.2 12.1h.1L544.6 79l36.2 12.1h.1L617.2 79l36.2 12.1h.1l7.6-2.6 28.7-9.5L726 91.1h.1v-.3l-36.3-12.1-36.3 12.1-36.3-12.1-36.3 12.1-36.3-12.1-36.3 12.1L472 78.7l-28.9 9.6-.7.2-6.7 2.3-36.3-12.1-36.3 12.1-36.3-12.1-36.3 12.1-36.3-12.1-36.3 12.1-36.3-12.1-36.3 12.1L109 78.7 72.6 90.8 36.4 78.7 0 90.8zM0 36.6l36.4-12.1 36.2 12.1h.1L109 24.5l15 5 21.2 7.1h.1l36.3-12.1 2.5.9 33.7 11.2h.1l21.2-7.1 15.1-5 36.2 12.1h.1l36.3-12.1 15 5 21.2 7.1h.1l36.3-12.1 36.2 12.1h.1L472 24.5l36.2 12.1h.1l36.3-12.1 36.2 12.1h.1l21.2-7.1 15.1-5 36.2 12.1h.1l36.3-12.1L726 36.6h.1v-.3l-36.3-12.1-36.3 12.1-36.3-12.1-36.3 12.1-36.3-12.1-36.3 12.1-21.1-7-15.2-5.1-36.3 12.1-36.3-12.1-15.3 5.1-21 7-36.3-12.1-36.3 12.1-36.3-12.1-36.3 12.1-35.3-11.8-1-.3-36.3 12.1L109 24.2 72.7 36.3 36.4 24.2 0 36.3v.3z"/>
    <path class="st0" d="M0 30.6l36.4-12.1 36.2 12.1h.1L109 18.5l19.5 6.5 16.7 5.6h.1l36.3-12.1 36.2 12.1h.1l16.7-5.6 19.6-6.5 36.2 12.1h.1l36.3-12.1 19.5 6.5 16.7 5.6h.1l36.3-12.1 36.2 12.1h.1L472 18.5l36.2 12.1h.1l36.3-12.1 36.2 12.1h.1l16.7-5.6 19.6-6.5 36.2 12.1h.1l36.3-12.1L726 30.6h.1v-.3l-36.3-12.1-36.3 12.1-36.3-12.1-36.3 12.1-36.3-12.1-36.3 12.1-16.5-5.5-19.8-6.6-36.3 12.1-36.3-12.1-19.9 6.6-16.4 5.5-36.3-12.1-36.3 12.1-36.3-12.1-36.3 12.1-36.3-12.1-36.3 12.1L109 18.2 72.7 30.3 36.4 18.2 0 30.3v.3zM0 48.7l36.4-12.1 36.2 12.1h.1L109 36.6l5.9 2 30.3 10.1h.1l36.3-12.1 1.7.6 34.5 11.5h.1l30.3-10.1 6-2 36.2 12.1h.1l36.3-12.1 5.9 2L363 48.7h.1l36.3-12.1 36.2 12.1h.1L472 36.6l36.2 12.1h.1l36.3-12.1 36.2 12.1h.1l30.3-10.1 6-2 36.2 12.1h.1l36.3-12.1L726 48.7h.1v-.3l-36.3-12.1-36.3 12.1-36.3-12.1-36.3 12.1-36.3-12.1-36.3 12.1-30.1-10-6.2-2.1-36.3 12.1-36.3-12.1-6.2 2.1-30.1 10-36.3-12.1-36.3 12.1-36.3-12.1-36.3 12.1-36.3-12.1-36.3 12.1L109 36.3 72.7 48.4 36.4 36.3 0 48.4v.3z"/>
    <path class="st0" d="M0 54.8l36.4-12.1 36.2 12.1h.1L109 42.7l1.4.5 34.8 11.6h.1l36.3-12.1 36.2 12.1h.1l34.8-11.6 1.5-.5 36.2 12.1h.1l36.3-12.1 1.4.5L363 54.8h.1l36.3-12.1 36.2 12.1h.1L472 42.7l1.4.5 6.8 2.2 28 9.4h.1l36.3-12.1 36.2 12.1h.1l34.8-11.6 1.5-.5 36.2 12.1h.1l36.3-12.1L726 54.8h.1v-.3l-36.3-12.1-36.3 12.1-36.3-12.1-36.3 12.1-36.3-12.1-36.3 12.1-34.7-11.6-1.6-.5-36.3 12.1-36.3-12.1-1.7.5-34.6 11.6-36.3-12.1-36.3 12.1-36.3-12.1-36.3 12.1-36.3-12.1-36.3 12.1L109 42.4 72.7 54.5 36.4 42.4 0 54.5v.3z"/>
    <path class="st0" d="M0 42.7l36.4-12.1 36.2 12.1h.1L109 30.6l10.5 3.5 25.7 8.6h.1l36.3-12.1 9 3 27.2 9.1h.1l25.8-8.6 10.5-3.5 36.2 12.1h.1l36.3-12.1 10.5 3.5 25.7 8.6h.1l36.3-12.1 36.2 12.1h.1L472 30.6l36.2 12.1h.1l36.3-12.1 36.2 12.1h.1l25.8-8.6 10.5-3.5 36.2 12.1h.1l36.3-12.1L726 42.7h.1v-.3l-36.3-12.1-36.3 12.1-36.3-12.1-36.3 12.1-36.3-12.1-36.3 12.1-25.6-8.6-10.7-3.5-36.3 12.1-36.3-12.1-10.8 3.5-25.5 8.6-36.3-12.1-36.3 12.1-36.3-12.1-36.3 12.1-36.3-12.1-36.3 12.1L109 30.3 72.7 42.4 36.4 30.3 0 42.4v.3zM0 97.1L36.4 85l24.1 8.1 12.1 4h.1L109 85l36.2 12.1h.1L181.6 85l36.2 12.1h.1L254.2 85l24.1 8.1 12.1 4h.1L326.8 85 363 97.1h.1L399.4 85l36.2 12.1h.1L472 85l36.2 12.1h.1L544.6 85l36.2 12.1h.1L617.2 85l36.2 12.1h.1l12.2-4 24.1-8.1L726 97.1h.1v-.3l-36.3-12.1-36.3 12.1-36.3-12.1-36.3 12.1-36.3-12.1-36.3 12.1L472 84.7l-24.4 8.1-6.3 2.1-5.6 1.9-36.3-12.1-36.3 12.1-36.3-12.1-36.3 12.1-36.3-12.1-36.3 12.1-36.3-12.1-36.3 12.1L109 84.7 72.6 96.8 36.4 84.7 0 96.8z"/>
    <path class="st0" d="M0 103.2l36.4-12.1 19.5 6.5 16.7 5.6h.1L109 91.1l6.7 2.2 29.5 9.9h.1l36.3-12.1 36.2 12.1h.1l36.3-12.1 19.5 6.5 16.7 5.6h.1l36.3-12.1 36.2 12.1h.1l36.3-12.1 36.2 12.1h.1L472 91.1l36.2 12.1h.1l36.3-12.1 36.2 12.1h.1l36.3-12.1 36.2 12.1h.1l16.7-5.6 19.6-6.5 36.2 12.1h.1v-.3l-36.3-12.1-36.3 12.1-36.3-12.1-36.3 12.1-36.3-12.1-36.3 12.1L472 90.8l-19.9 6.6-16.4 5.5-36.3-12.1-36.3 12.1-36.3-12.1-36.3 12.1-36.3-12.1-36.3 12.1-36.3-12.1-36.3 12.1L109 90.8l-36.4 12.1-13.3-4.5-3.1-1-19.8-6.6L0 102.9z"/>
    <path class="st0" d="M0 109.2l36.4-12.1 15 5 21.2 7.1h.1L109 97.1l36.2 12.1h.1l36.3-12.1 36.2 12.1h.1l36.3-12.1 15 5 21.2 7.1h.1l36.3-12.1 36.2 12.1h.1l36.3-12.1 36.2 12.1h.1L472 97.1l36.2 12.1h.1l36.3-12.1 36.2 12.1h.1l36.3-12.1 36.2 12.1h.1l21.2-7.1 15.1-5 36.2 12.1h.1v-.3l-36.3-12.1-36.3 12.1-36.3-12.1-36.3 12.1-36.3-12.1-36.3 12.1L472 96.8l-15.3 5.1-21 7-36.3-12.1-36.3 12.1-36.3-12.1-36.3 12.1-36.3-12.1-36.3 12.1-36.3-12.1-36.3 12.1L109 96.8l-36.4 12.1-36.2-12.1L0 108.9zM726.1 127.1L689.8 115l-36.3 12.1-36.3-12.1-36.3 12.1-36.3-12.1-36.3 12.1L472 115l-34.9 11.6-1.4.5-1.5-.5-34.8-11.6-36.3 12.1-36.3-12.1-36.3 12.1-1.5-.5-34.8-11.6-36.3 12.1-36.3-12.1-36.3 12.1L109 115l-34.9 11.6-1.4.5L36.4 115 0 127.1v.3l36.4-12.1 36.2 12.1h.1l36.3-12.1 36.2 12.1h.1l36.3-12.1 36.2 12.1h.1l36.3-12.1 36.2 12.1h.1l1.6-.6 34.7-11.5 36.2 12.1h.1l36.3-12.1 36.2 12.1h.1l36.3-12.1 36.2 12.1h.1l36.3-12.1 36.2 12.1h.1l36.3-12.1 34.6 11.5 1.6.6h.1l36.3-12.1 36.2 12.1h.1z"/>
    <path class="st0" d="M726.1 121l-36.3-12.1-36.3 12.1-36.3-12.1-36.3 12.1-36.3-12.1-36.3 12.1-36.3-12.1-30.1 10-6.2 2.1-36.3-12.1-36.3 12.1-36.3-12.1-36.3 12.1-36.3-12.1-36.3 12.1-32.4-10.8-3.9-1.3-36.3 12.1-36.3-12.1L72.6 121l-36.2-12.1L0 121v.3l36.4-12.1 30.5 10.2 5.7 1.9h.1l36.3-12.1 36.2 12.1h.1l36.3-12.1 36.2 12.1h.1l36.3-12.1 30.5 10.2 5.7 1.9h.1l36.3-12.1 36.2 12.1h.1l36.3-12.1 36.2 12.1h.1l36.3-12.1 36.2 12.1h.1l36.3-12.1 36.2 12.1h.1l36.3-12.1 36.2 12.1h.1l5.7-1.9 30.6-10.2 36.2 12.1h.1z"/>
    <path class="st0" d="M726.1 133.1L689.8 121l-36.3 12.1-36.3-12.1-36.3 12.1-36.3-12.1-36.3 12.1L472 121l-30.4 10.1-5.9 2-6-2-30.3-10.1-36.3 12.1-36.3-12.1-36.3 12.1-6-2-27.3-9.1-3-1-36.3 12.1-29.7-9.9-6.6-2.2-36.3 12.1L109 121l-30.4 10.1-5.9 2L36.4 121 0 133.1v.3l36.4-12.1 36.2 12.1h.1l36.3-12.1 36.2 12.1h.1l36.3-12.1 6.7 2.3 29.5 9.8h.1l36.3-12.1 17.4 5.9 18.8 6.2h.1l6.2-2 30.1-10.1 36.2 12.1h.1l36.3-12.1 36.2 12.1h.1l36.3-12.1 36.2 12.1h.1l36.3-12.1 36.2 12.1h.1l36.3-12.1 30.1 10.1 6.1 2h.1l36.3-12.1 36.2 12.1h.1zM726.1 115l-36.3-12.1-36.3 12.1-36.3-12.1-36.3 12.1-36.3-12.1-36.3 12.1-36.3-12.1-21 7-15.3 5.1-36.3-12.1-36.3 12.1-36.3-12.1-36.3 12.1-36.3-12.1-36.3 12.1-36.3-12.1-36.3 12.1-36.3-12.1L72.6 115l-36.2-12.1L0 115v.3l36.4-12.1 21.4 7.1 14.8 5h.1l36.3-12.1 36.2 12.1h.1l36.3-12.1 36.2 12.1h.1l36.3-12.1 21.4 7.1 14.8 5h.1l36.3-12.1 36.2 12.1h.1l36.3-12.1 36.2 12.1h.1l36.3-12.1 36.2 12.1h.1l36.3-12.1 36.2 12.1h.1l36.3-12.1 36.2 12.1h.1l14.8-5 21.5-7.1 36.2 12.1h.1zM726.1 169.4l-36.3-12.1-36.3 12.1-36.3-12.1-36.3 12.1-36.3-12.1-36.3 12.1-36.3-12.1-3.2 1 .1.1-33.2 11-33.2-11v-.1l-3.1-1-36.3 12.1-36.3-12.1-36.3 12.1-33.2-11.1-3.1-1-36.3 12.1-9.9-3.3-26.4-8.8-36.3 12.1-36.3-12.1-3.2 1-33.1 11.1-36.3-12.1L0 169.4v.3l36.4-12.1 36.2 12.1h.1l36.3-12.1 36.2 12.1h.1l36.3-12.1 36.2 12.1h.1l36.3-12.1 36.2 12.1h.1l33.4-11.1 2.9-1 36.2 12.1h.1l36.3-12.1 36.2 12.1h.1l36.3-12.1 36.2 12.1h.1l36.3-12.1 36.2 12.1h.1l36.3-12.1.2.1 2.6.9 33.4 11.1h.1l36.3-12.1 36.2 12.1h.1z"/>
    <path class="st0" d="M726.1 163.4l-36.3-12.1-36.3 12.1-36.3-12.1-36.3 12.1-36.3-12.1-36.3 12.1-36.3-12.1-7.7 2.5-28.6 9.6-28.7-9.6-7.6-2.5-36.3 12.1-36.3-12.1-36.3 12.1-28.7-9.6-7.6-2.5-36.3 12.1-36.3-12.1-36.3 12.1-36.3-12.1-7.7 2.5-28.6 9.6-36.3-12.1L0 163.4v.3l36.4-12.1 36.2 12.1h.1l36.3-12.1 36.2 12.1h.1l36.3-12.1 28.6 9.5 7.6 2.6h.1l36.3-12.1 36.2 12.1h.1l28.8-9.6h.1l7.4-2.5 36.2 12.1h.1l36.3-12.1 36.2 12.1h.1l36.3-12.1 36.2 12.1h.1l36.3-12.1 36.2 12.1h.1l36.3-12.1 7.4 2.5 28.8 9.6h.1l36.3-12.1 36.2 12.1h.1z"/>
    <path class="st0" d="M726.1 151.3l-36.3-12.1-36.3 12.1-36.3-12.1-36.3 12.1-36.3-12.1-36.3 12.1-36.3-12.1-16.8 5.5-19.5 6.6-19.6-6.6-16.7-5.5-36.3 12.1-36.3-12.1-36.3 12.1-20.6-6.9-15.7-5.2-36.3 12.1-4.8-1.6-31.5-10.5-36.3 12.1-36.3-12.1-16.8 5.5-19.5 6.6-36.3-12.1L0 151.3v.3l36.4-12.1 36.2 12.1h.1l36.3-12.1 36.2 12.1h.1l36.3-12.1 36.2 12.1h.1l36.3-12.1 36.2 12.1h.1l19.8-6.6 16.5-5.5 36.2 12.1h.1l36.3-12.1 36.2 12.1h.1l36.3-12.1 36.2 12.1h.1l36.3-12.1 36.2 12.1h.1l36.3-12.1 16.5 5.5 19.7 6.6h.1l36.3-12.1 36.2 12.1h.1z"/>
    <path class="st0" d="M726.1 145.2l-36.3-12.1-36.3 12.1-36.3-12.1-36.3 12.1-36.3-12.1-36.3 12.1-36.3-12.1-21.3 7.1-15 5-15.1-5-21.2-7.1-36.3 12.1-36.3-12.1-36.3 12.1-15.1-5-21.2-7.1-36.3 12.1-36.3-12.1-36.3 12.1-36.3-12.1-21.3 7.1-15 5-36.3-12.1L0 145.2v.3l36.4-12.1 36.2 12.1h.1l36.3-12.1 10.3 3.5 25.9 8.6h.1l36.3-12.1 36.2 12.1h.1l36.3-12.1 36.2 12.1h.1l15.2-5.1 21.1-7 36.2 12.1h.1l36.3-12.1 36.2 12.1h.1l36.3-12.1 36.2 12.1h.1l36.3-12.1 36.2 12.1h.1l36.3-12.1 21 7 15.2 5.1h.1l36.3-12.1 36.2 12.1h.1z"/>
    <path class="st0" d="M726.1 139.2l-36.3-12.1-36.3 12.1-36.3-12.1-36.3 12.1-36.3-12.1-36.3 12.1-36.3-12.1-25.8 8.6-10.5 3.5-10.5-3.5-25.8-8.6-36.3 12.1-36.3-12.1-36.3 12.1-10.5-3.5-25.8-8.6-36.3 12.1-36.3-12.1-36.3 12.1-36.3-12.1-25.8 8.6-10.5 3.5-36.3-12.1L0 139.2v.3l36.4-12.1 36.2 12.1h.1l36.3-12.1 12 4 24.2 8.1h.1l36.3-12.1 36.2 12.1h.1l36.3-12.1 36.2 12.1h.1l10.7-3.6 25.6-8.5 36.2 12.1h.1l36.3-12.1 36.2 12.1h.1l36.3-12.1 36.2 12.1h.1l36.3-12.1 36.2 12.1h.1l36.3-12.1 25.5 8.5 10.7 3.6h.1l36.3-12.1 36.2 12.1h.1zM726.1 157.3l-36.3-12.1-36.3 12.1-36.3-12.1-36.3 12.1-36.3-12.1-36.3 12.1-36.3-12.1-12.2 4.1-24.1 8-24.2-8h.1l-12.2-4.1-36.3 12.1-36.3-12.1-36.3 12.1-24.2-8-12.1-4.1-36.3 12.1-36.3-12.1-36.3 12.1-36.3-12.1-12.2 4.1-24.1 8-36.3-12.1L0 157.3v.3l36.4-12.1 36.2 12.1h.1l36.3-12.1 33.2 11.1 3 1h.1l36.3-12.1 36.2 12.1h.1l36.3-12.1 36.2 12.1h.1l24.3-8.1 12-4 36.2 12.1h.1l36.3-12.1 36.2 12.1h.1l36.3-12.1 36.2 12.1h.1l36.3-12.1 36.2 12.1h.1l36.3-12.1 11.9 4 24.3 8.1h.1l36.3-12.1 36.2 12.1h.1zM689.8 163.4l-36.3 12.1-36.3-12.1-36.3 12.1-36.3-12.1-36.3 12.1-33.5-11.2-2.8-.9-36.3 12.1-36.3-12.1-2.9.9-33.4 11.2-36.3-12.1-36.3 12.1-36.3-12.1-36.3 12.1-36.3-12.1-36.3 12.1-36.3-12.1-36.3 12.1-36.3-12.1L0 175.5v.3l36.4-12.1 36.2 12.1h.1l36.3-12.1 3.3 1.1 32.9 11h.1l36.3-12.1 36.2 12.1h.1l32.9-11 3.4-1.1 36.2 12.1h.1l36.3-12.1 3.3 1.1 32.9 11h.1l36.3-12.1 36.2 12.1h.1l36.3-12.1 36.2 12.1h.1l36.3-12.1 36.2 12.1h.1l32.9-11 3.4-1.1 36.2 12.1h.1l36.3-12.1 36.2 12.1h.1v-.3z"/>
    <path class="st0" d="M689.8 169.4l-36.3 12.1-36.3-12.1-36.3 12.1-36.3-12.1-36.3 12.1-24.4-8.1-11.9-4-36.3 12.1-36.3-12.1-12 4-24.3 8.1-36.3-12.1-36.3 12.1-36.3-12.1-36.3 12.1-36.3-12.1-36.3 12.1-10.5-3.5-13.9-4.6-11.9-4-36.3 12.1-36.3-12.1L0 181.5v.3l36.4-12.1 36.2 12.1h.1l36.3-12.1 20.8 7 15.4 5.1h.1l36.3-12.1 36.2 12.1h.1l23.8-7.9h.1l12.4-4.2 36.2 12.1h.1l36.3-12.1 12.4 4.2 23.8 7.9h.1l36.3-12.1 36.2 12.1h.1l36.3-12.1 36.2 12.1h.1l36.3-12.1 6 2.1 30.2 10h.1l23.9-7.9 12.4-4.2 36.2 12.1h.1l36.3-12.1 36.2 12.1h.1v-.3z"/>
    <path class="st0" d="M689.8 175.5l-36.3 12.1-36.3-12.1-36.3 12.1-36.3-12.1-36.3 12.1-15.3-5.1-21-7-36.3 12.1-36.3-12.1-21 7-15.3 5.1-36.3-12.1-36.3 12.1-36.3-12.1-36.3 12.1-36.3-12.1-36.3 12.1-14.4-4.8-21.9-7.3-36.3 12.1-36.3-12.1L0 187.6v.3l36.4-12.1 36.2 12.1h.1l36.3-12.1 21.4 7.1 14.8 5h.1l36.3-12.1 36.2 12.1h.1l14.8-5 21.5-7.1 36.2 12.1h.1l36.3-12.1 21.4 7.1v.1l14.8 4.9h.1l36.3-12.1 36.2 12.1h.1l36.3-12.1 36.2 12.1h.1l36.3-12.1 36.2 12.1h.1l14.8-4.9v-.1l21.5-7.1 36.2 12.1h.1l36.3-12.1 36.2 12.1h.1v-.3z"/>
    <path class="st0" d="M689.8 181.5l-36.3 12.1-36.3-12.1-36.3 12.1-36.3-12.1-36.3 12.1-6.3-2.1-30-10-36.3 12.1-36.3-12.1-30.1 10-6.2 2.1-36.3-12.1-36.3 12.1-36.3-12.1-36.3 12.1-36.3-12.1-36.3 12.1-36.3-12.1-36.3 12.1-36.3-12.1L0 193.6v.3l36.4-12.1 36.2 12.1h.1l36.3-12.1 30.5 10.2 5.7 1.9h.1l36.3-12.1 36.2 12.1h.1l5.7-1.9 30.6-10.2 36.2 12.1h.1l36.3-12.1 30.5 10.2 5.7 1.9h.1l36.3-12.1 36.2 12.1h.1l36.3-12.1 36.2 12.1h.1l36.3-12.1 36.2 12.1h.1l5.7-1.9 30.6-10.2 36.2 12.1h.1l36.3-12.1 36.2 12.1h.1v-.3z"/>
</svg>
