<svg xmlns="http://www.w3.org/2000/svg" xmlns:xlink="http://www.w3.org/1999/xlink" version="1.1">
    <symbol id="fb" viewBox="0 0 99 99">
        <g>
            <path d="M49.5 0c13.7 0 26 5.5 35 14.5S99 35.8 99 49.5s-5.5 26-14.5 35S63.2 99 49.5 99s-26-5.5-35-14.5S0 63.2 0 49.5s5.5-26 14.5-35S35.8 0 49.5 0zm32.3 17.2C73.5 9 62.1 3.9 49.5 3.9S25.5 9 17.2 17.3C9 25.5 3.9 36.9 3.9 49.5s5.1 24 13.4 32.3S37 95.2 49.6 95.2s24-5.1 32.3-13.4 13.4-19.7 13.4-32.3c-.1-12.6-5.2-24-13.5-32.3z" class="st0"/>
            <path d="M53.3 39.4v-4.1c0-1.9 1.3-2.4 2.2-2.4h5.7v-8.7h-7.8c-8.7 0-10.6 6.4-10.6 10.6v4.6h-5v10.1h5.1v25.3H53V49.5h7.5l.3-4 .6-6.1h-8.1z" class="st0"/>
        </g>
    </symbol>
    <symbol id="inst" viewBox="0 0 99 99">
        <g>
            <path d="M49.5 0c13.7 0 26.1 5.5 35 14.5 9 9 14.5 21.3 14.5 35s-5.5 26-14.5 35c-8.9 9-21.3 14.5-35 14.5s-26-5.5-35-14.5S0 63.2 0 49.5s5.5-26 14.5-35S35.9 0 49.5 0zm32.3 17.2C73.5 9 62.1 3.9 49.5 3.9S25.5 9 17.2 17.3C9 25.5 3.9 36.9 3.9 49.5s5.1 24 13.4 32.3S37 95.2 49.6 95.2s24-5.1 32.3-13.4 13.4-19.7 13.4-32.3c-.1-12.6-5.2-24-13.5-32.3z" class="st0"/>
            <path d="M36.9 49.5c0-7 5.7-12.7 12.7-12.7s12.7 5.7 12.7 12.7-5.7 12.7-12.7 12.7c-7.1 0-12.7-5.7-12.7-12.7zm25.7-24.8H36.4c-6.4 0-11.7 5.3-11.7 11.7v26.2c0 6.4 5.3 11.7 11.7 11.7h26.2c6.5 0 11.7-5.3 11.7-11.7V36.4c.1-6.4-5.2-11.7-11.7-11.7zm-26.2 2.9h26.2c4.9 0 8.8 3.9 8.8 8.8v26.2c0 4.9-3.9 8.8-8.8 8.8H36.4c-4.9 0-8.8-3.9-8.8-8.8V36.4c0-4.8 4-8.8 8.8-8.8zm28.8 3.7c-1.4 0-2.6 1.2-2.6 2.6 0 1.4 1.2 2.6 2.6 2.6 1.4 0 2.6-1.2 2.6-2.6 0-1.4-1.1-2.6-2.6-2.6zm.3 18.2c0-8.8-7.2-16-16-16s-16 7.2-16 16c0 8.9 7.2 16 16 16 8.9 0 16-7.1 16-16z" class="st0"/>
        </g>
    </symbol>
    <symbol xmlns="http://www.w3.org/2000/svg" id="vk" viewBox="0 0 99 99">
        <g>
            <path d="M49.5 0c13.7 0 26 5.5 35 14.5S99 35.9 99 49.5c0 13.7-5.5 26-14.5 35S63.2 99 49.5 99s-26-5.5-35-14.5S0 63.2 0 49.5s5.5-26 14.5-35S35.8 0 49.5 0zm32.3 17.2C73.5 9 62.1 3.9 49.5 3.9S25.5 9 17.2 17.2C9 25.5 3.9 36.9 3.9 49.5s5.1 24 13.4 32.3S37 95.2 49.6 95.2s24-5.1 32.3-13.4 13.4-19.7 13.4-32.3c-.1-12.6-5.2-24-13.5-32.3z" class="st0"/>
            <path d="M76.9 35.7c-.7-.5-3.4-.5-6-.5-2.7.1-5.4.1-6 .3s-1.9 3.3-3.5 6.6c-1.9 3.6-4.3 7.1-5.7 7.1-1.9 0-1.5-5.9-1.3-10.4 0-2.9-.4-3.8-.9-4.1-1-.7-3.8-1.4-3.8-1.4s-8.4-.6-9.6 3c1.6.2 4.4-.3 3.3 10.9-.1.5-1.3 5.2-5.2-1.1-1-1.6-4.7-10.9-6-11-4.3-.1-8.6-.3-10.1.5-1.4.8 1.9 7.2 7.4 15.8C34 58.5 38.7 64 46.9 65.3c1.6.2 5.6.3 6.9-.3.8-.4-.2-6.5 2.7-7.1 1.3-.2 6.3 6.4 8.2 7.1 1.2.5 3.7.7 6.3.5 2.8-.1 6 .3 6.3-1.6.7-4.2-8.5-9.7-8.7-12.3-.2-1.9 3.3-5.3 5.2-7.9 2-2.9 4.5-6.8 3.1-8z" class="st0"/>
        </g>
    </symbol>
    <symbol xmlns="http://www.w3.org/2000/svg" id="callback-arrow" viewBox="0 0 71 18">
        <g>
            <path d="M62.3 17.5l8.5-9.2M62.8.3l7.9 7.9M71 8.3L0 8.5"/>
        </g>
    </symbol>
    <symbol xmlns="http://www.w3.org/2000/svg" id="close" viewBox="0 0 15 15">
        <path d="M.53,0A.53.53,0,0,0,0,.53.55.55,0,0,0,.16.92L6.7,7.46.16,14a.54.54,0,1,0,.76.76h0L7.46,8.21,14,14.75a.53.53,0,0,0,.75,0,.54.54,0,0,0,0-.76h0L8.21,7.46,14.75.92a.55.55,0,0,0,0-.76.59.59,0,0,0-.4-.16A.51.51,0,0,0,14,.16L7.46,6.7.92.16A.55.55,0,0,0,.53,0Z"></path>
    </symbol>
</svg>
