<svg id="Слой_1" xmlns="http://www.w3.org/2000/svg" viewBox="0 0 99 99">
    <style>
        .st0{fill:#cfcccc}
    </style>
    <g id="_x31_6">
        <path class="st0" d="M49.5 0c13.7 0 26 5.5 35 14.5S99 35.9 99 49.5c0 13.7-5.5 26-14.5 35S63.2 99 49.5 99s-26-5.5-35-14.5S0 63.2 0 49.5s5.5-26 14.5-35S35.8 0 49.5 0zm32.3 17.2C73.5 9 62.1 3.9 49.5 3.9S25.5 9 17.2 17.2C9 25.5 3.9 36.9 3.9 49.5s5.1 24 13.4 32.3S37 95.2 49.6 95.2s24-5.1 32.3-13.4 13.4-19.7 13.4-32.3c-.1-12.6-5.2-24-13.5-32.3z"/>
        <path class="st0" d="M76.9 35.7c-.7-.5-3.4-.5-6-.5-2.7.1-5.4.1-6 .3s-1.9 3.3-3.5 6.6c-1.9 3.6-4.3 7.1-5.7 7.1-1.9 0-1.5-5.9-1.3-10.4 0-2.9-.4-3.8-.9-4.1-1-.7-3.8-1.4-3.8-1.4s-8.4-.6-9.6 3c1.6.2 4.4-.3 3.3 10.9-.1.5-1.3 5.2-5.2-1.1-1-1.6-4.7-10.9-6-11-4.3-.1-8.6-.3-10.1.5-1.4.8 1.9 7.2 7.4 15.8C34 58.5 38.7 64 46.9 65.3c1.6.2 5.6.3 6.9-.3.8-.4-.2-6.5 2.7-7.1 1.3-.2 6.3 6.4 8.2 7.1 1.2.5 3.7.7 6.3.5 2.8-.1 6 .3 6.3-1.6.7-4.2-8.5-9.7-8.7-12.3-.2-1.9 3.3-5.3 5.2-7.9 2-2.9 4.5-6.8 3.1-8z"/>
    </g>
</svg>
